<?xml version="1.0" standalone="no"?>
<!DOCTYPE svg PUBLIC "-//W3C//DTD SVG 20010904//EN"
 "http://www.w3.org/TR/2001/REC-SVG-20010904/DTD/svg10.dtd">
<svg version="1.0" xmlns="http://www.w3.org/2000/svg"
 width="800.000000pt" height="800.000000pt" viewBox="0 0 800.000000 800.000000"
 preserveAspectRatio="xMidYMid meet">

<g transform="translate(0.000000,800.000000) scale(0.100000,-0.100000)"
fill="#000000" stroke="none">
<path d="M2076 6552 c-59 -251 -141 -599 -182 -772 -41 -173 -86 -364 -101
-425 -14 -60 -31 -133 -38 -162 -11 -44 -11 -53 2 -57 37 -14 49 -5 82 62 80
162 275 470 392 618 187 235 504 450 836 564 293 102 557 140 960 140 188 0
533 -19 617 -33 9 -2 253 387 255 406 1 4 -563 7 -1252 7 -1117 0 -1259 2
-1307 16 -58 17 -91 35 -130 71 l-26 23 -108 -458z"/>
<path d="M5020 6767 c-46 -72 -141 -222 -210 -332 -205 -326 -455 -721 -545
-860 -46 -71 -99 -155 -118 -185 -19 -30 -132 -208 -252 -395 -119 -187 -274
-429 -344 -538 -69 -109 -162 -255 -207 -325 -44 -70 -217 -341 -384 -602
-167 -261 -324 -507 -349 -547 -50 -79 -123 -193 -258 -405 -232 -363 -299
-468 -598 -943 -177 -280 -325 -516 -330 -524 -7 -12 71 -13 516 -8 l524 5
164 254 c545 842 1396 2155 1570 2421 29 45 157 242 284 437 126 195 258 398
292 450 34 52 147 226 250 385 103 160 254 391 334 515 81 124 237 363 346
532 110 170 267 410 348 535 81 126 152 236 158 246 9 16 -20 17 -548 17
l-558 0 -85 -133z"/>
<path d="M6308 3006 c-119 -238 -267 -436 -475 -636 -284 -274 -675 -535 -990
-661 -515 -207 -1137 -275 -1763 -193 l-46 6 -70 -108 c-110 -168 -194 -303
-194 -308 0 -3 597 -7 1327 -8 l1328 -3 55 -26 c30 -14 69 -38 87 -53 17 -14
34 -23 36 -19 3 5 58 143 122 308 64 165 145 372 180 460 35 88 162 413 284
722 121 309 227 577 235 596 l14 35 -35 4 -35 4 -60 -120z"/>
</g>
</svg>
